<svg width="49" height="48" viewBox="0 0 49 48" fill="none" xmlns="http://www.w3.org/2000/svg">
<path d="M0.0775757 0H48.0776V48H0.0775757V0Z" fill="#F7DF1E"/>
<path d="M12.6986 40.1123L16.3717 37.8892C17.0805 39.1457 17.7251 40.2088 19.2714 40.2088C20.7536 40.2088 21.6883 39.6291 21.6883 37.3738V22.0367H26.199V37.4376C26.199 42.1095 23.4603 44.2361 19.4647 44.2361C15.8563 44.2361 13.7617 42.3673 12.6984 40.1119M28.649 39.6289L32.3218 37.5024C33.2887 39.0814 34.5453 40.2412 36.7683 40.2412C38.6375 40.2412 39.8293 39.3067 39.8293 38.0179C39.8293 36.4714 38.6049 35.9235 36.5428 35.0216L35.4153 34.5379C32.1609 33.1528 30.0022 31.4128 30.0022 27.7397C30.0022 24.3564 32.5798 21.7787 36.6075 21.7787C39.4751 21.7787 41.5372 22.7777 43.0192 25.3875L39.507 27.6431C38.7335 26.2577 37.8961 25.71 36.6073 25.71C35.2861 25.71 34.4484 26.5477 34.4484 27.6431C34.4484 28.9963 35.2861 29.5444 37.2193 30.3821L38.3469 30.8653C42.1813 32.5087 44.34 34.1841 44.34 37.9536C44.34 42.0137 41.1502 44.2367 36.8649 44.2367C32.6763 44.2367 29.9698 42.2391 28.6488 39.6291" fill="black"/>
</svg>
