<svg width="35" height="48" viewBox="0 0 35 48" fill="none" xmlns="http://www.w3.org/2000/svg">
<path d="M24.5511 1.19961C24.9422 1.68511 25.1415 2.3402 25.5404 3.65036L34.2532 32.272C30.9805 30.5737 27.4679 29.3845 23.8366 28.7453L18.1637 9.57482C18.1185 9.42192 18.0249 9.28778 17.8971 9.19246C17.7693 9.09714 17.614 9.04576 17.4545 9.04601C17.2951 9.04626 17.14 9.09813 17.0125 9.19385C16.8849 9.28957 16.7918 9.42401 16.7471 9.57705L11.1429 28.7357C7.49517 29.3719 3.96644 30.563 0.679382 32.2675L9.43479 3.64367C9.83492 2.33587 10.0351 1.68184 10.4261 1.19725C10.7714 0.769463 11.2205 0.437244 11.7305 0.232262C12.3082 0 12.9922 0 14.3599 0H20.6134C21.983 0 22.6677 0 23.2461 0.232656C23.7565 0.438165 24.2058 0.771074 24.551 1.19961" fill="black"/>
<path d="M25.5937 33.6341C24.1574 34.8621 21.2905 35.6998 17.9882 35.6998C13.9352 35.6998 10.5381 34.438 9.63675 32.7411C9.31439 33.7135 9.24213 34.8267 9.24213 35.5377C9.24213 35.5377 9.0298 39.0292 11.4583 41.4577C11.4583 40.1967 12.4806 39.1744 13.7415 39.1744C15.9029 39.1744 15.9002 41.06 15.8984 42.5899L15.8983 42.7264C15.8983 45.0484 17.3173 47.0389 19.3356 47.8779C19.025 47.2384 18.8641 46.5367 18.8651 45.8258C18.8651 43.6113 20.1651 42.7867 21.6762 41.8284C22.8785 41.0659 24.2143 40.2187 25.1349 38.5193C25.6306 37.6038 25.8894 36.5788 25.8879 35.5377C25.8879 34.8741 25.7848 34.2345 25.5937 33.6341Z" fill="#FF5D01"/>
</svg>
