<svg width="48" height="48" viewBox="0 0 48 48" fill="none" xmlns="http://www.w3.org/2000/svg">
<path d="M47.0399 10.84C47.0572 10.9038 47.0661 10.9696 47.0661 11.0358V21.3209C47.0661 21.5896 46.9225 21.8378 46.6892 21.9715L38.057 26.9418V36.7927C38.0569 36.9245 38.0223 37.054 37.9565 37.1682C37.8907 37.2824 37.7961 37.3773 37.6821 37.4435L19.6624 47.8167C19.6212 47.84 19.5763 47.8549 19.5312 47.8711C19.5143 47.8765 19.4984 47.8869 19.4806 47.8916C19.3547 47.9248 19.2222 47.9248 19.0963 47.8916C19.0755 47.8862 19.0568 47.8747 19.0372 47.8673C18.9959 47.8522 18.9528 47.8391 18.9135 47.8167L0.897539 37.4433C0.78308 37.3775 0.687973 37.2828 0.621802 37.1686C0.555632 37.0544 0.520735 36.9247 0.52063 36.7927L0.52063 5.93746C0.52063 5.86982 0.530084 5.80418 0.546812 5.74055C0.552448 5.71891 0.565539 5.69927 0.573175 5.67764C0.587175 5.63836 0.600448 5.598 0.620994 5.56146C0.634994 5.53709 0.655539 5.51746 0.672448 5.49491C0.694084 5.46491 0.713721 5.434 0.738994 5.40764C0.76063 5.38618 0.788812 5.37018 0.813175 5.35146C0.840448 5.32891 0.86463 5.30455 0.895539 5.28673H0.896448L9.90481 0.100183C10.0189 0.0346226 10.1482 0.00012207 10.2798 0.00012207C10.4114 0.00012207 10.5407 0.0346226 10.6548 0.100183L19.6632 5.28673H19.665C19.695 5.30564 19.7204 5.32891 19.7475 5.35055C19.7719 5.36927 19.7992 5.38618 19.8206 5.40691C19.847 5.434 19.8657 5.46509 19.8881 5.49491C19.9041 5.51746 19.9257 5.53709 19.9388 5.56146C19.9603 5.59891 19.9724 5.63836 19.9875 5.67782C19.995 5.69927 20.0081 5.71891 20.0137 5.74146C20.031 5.80527 20.0399 5.87127 20.0401 5.93746V25.2091L27.5466 20.8867V11.0349C27.5466 10.9695 27.5561 10.9027 27.573 10.84C27.5795 10.8175 27.5917 10.7978 27.5992 10.7764C27.6143 10.7369 27.6274 10.6964 27.6479 10.66C27.6619 10.6356 27.6824 10.616 27.6986 10.5935C27.721 10.5635 27.7397 10.5325 27.7659 10.5062C27.7877 10.4847 27.8148 10.4687 27.8392 10.45C27.8674 10.4275 27.8917 10.4031 27.9217 10.3853H27.9226L36.9319 5.19873C37.0459 5.13299 37.1753 5.09839 37.3069 5.09839C37.4385 5.09839 37.5679 5.13299 37.6819 5.19873L46.6903 10.3853C46.7221 10.404 46.7464 10.4275 46.7746 10.4489C46.7979 10.4678 46.8252 10.4847 46.8468 10.5053C46.873 10.5325 46.8917 10.5635 46.9141 10.5935C46.9312 10.616 46.9517 10.6356 46.965 10.66C46.9865 10.6964 46.9986 10.7369 47.0135 10.7764C47.0221 10.7978 47.0343 10.8175 47.0399 10.84ZM45.5644 20.8869V12.3342L42.4119 14.1489L38.0568 16.6565V25.2093L45.5654 20.8869H45.5644ZM36.5561 36.3587V27.8L32.2721 30.2467L20.0392 37.2285V45.8675L36.5561 36.3587ZM2.02227 7.23564V36.3587L18.5374 45.8667V37.2295L9.90972 32.3465L9.90699 32.3447L9.90336 32.3429C9.87427 32.326 9.84972 32.3016 9.82263 32.2811C9.79899 32.2622 9.7719 32.2473 9.75136 32.2265L9.74954 32.2238C9.72518 32.2004 9.70827 32.1713 9.68772 32.1451C9.66881 32.1196 9.64645 32.0982 9.63136 32.072L9.63045 32.0691C9.61354 32.0411 9.60318 32.0073 9.59099 31.9755C9.57881 31.9473 9.56299 31.9209 9.55536 31.8911V31.8902C9.54609 31.8545 9.54427 31.8169 9.54045 31.7804C9.53681 31.7524 9.52918 31.7242 9.52918 31.696V11.5582L5.17481 9.04946L2.02227 7.23673V7.23564ZM10.2808 1.61691L2.77499 5.93746L10.279 10.2578L17.7837 5.93637L10.279 1.61691H10.2808ZM14.1841 28.5802L18.5383 26.0736V7.23564L15.3861 9.05055L11.0306 11.558V30.3958L14.1841 28.5802ZM37.3068 6.71546L29.8021 11.0358L37.3068 15.3564L44.8106 11.0349L37.3068 6.71546ZM36.5559 16.6565L32.2008 14.1489L29.0484 12.3342V20.8869L33.4026 23.3936L36.5561 25.2093L36.5559 16.6565ZM19.2874 35.9304L30.2952 29.646L35.7977 26.5056L28.2984 22.188L19.6641 27.1589L11.7946 31.6895L19.2874 35.9304Z" fill="#FF2D20"/>
</svg>
