<svg width="33" height="48" viewBox="0 0 33 48" fill="none" xmlns="http://www.w3.org/2000/svg">
<path d="M8.52893 48C12.9449 48 16.5289 44.416 16.5289 40V32H8.52893C4.11293 32 0.528931 35.584 0.528931 40C0.528931 44.416 4.11293 48 8.52893 48Z" fill="#0ACF83"/>
<path d="M0.528931 24C0.528931 19.584 4.11293 16 8.52893 16H16.5289V32H8.52893C4.11293 32 0.528931 28.416 0.528931 24Z" fill="#A259FF"/>
<path d="M0.528931 8C0.528931 3.584 4.11293 0 8.52893 0H16.5289V16H8.52893C4.11293 16 0.528931 12.416 0.528931 8Z" fill="#F24E1E"/>
<path d="M16.5289 0H24.5289C28.9449 0 32.5289 3.584 32.5289 8C32.5289 12.416 28.9449 16 24.5289 16H16.5289V0Z" fill="#FF7262"/>
<path d="M32.5289 24C32.5289 28.416 28.9449 32 24.5289 32C20.1129 32 16.5289 28.416 16.5289 24C16.5289 19.584 20.1129 16 24.5289 16C28.9449 16 32.5289 19.584 32.5289 24Z" fill="#1ABCFE"/>
</svg>
