<svg width="35" height="48" viewBox="0 0 35 48" fill="none" xmlns="http://www.w3.org/2000/svg">
<path d="M17.0374 47.8787L3.18499 44.0331L0.0979614 9.4093H34.0184L30.9282 44.0278L17.0374 47.8787Z" fill="#264DE4"/>
<path d="M28.2826 41.8234L30.9233 12.2402H17.0582V44.9352L28.2826 41.8234Z" fill="#2965F1"/>
<path d="M7.17484 25.0817L7.55539 29.3282H17.0582V25.0817H7.17484ZM6.41003 16.4868L6.79603 20.7333H17.0582V16.4868H6.41003ZM17.0582 36.1103L17.0396 36.1152L12.3103 34.8382L12.008 31.4515H7.74513L8.34001 38.1191L17.0386 40.5338L17.0582 40.5284V36.1103Z" fill="#EBEBEB"/>
<path d="M8.08099 0H13.224V2.15083H10.2318V4.30165H13.2243V6.45234H8.08099V0ZM14.2528 0H19.396V1.87027H16.4036V2.2443H19.396V6.54595H14.2529V4.58194H17.2453V4.20791H14.2527L14.2528 0ZM20.4247 0H25.5679V1.87027H22.5755V2.2443H25.5679V6.54595H20.4247V4.58194H23.4171V4.20791H20.4248L20.4247 0Z" fill="black"/>
<path d="M26.9144 25.0817L27.6809 16.4868H17.0436V20.7333H23.0272L22.6408 25.0817H17.0436V29.3282H22.2726L21.7796 34.8356L17.0434 36.1139V40.5318L25.749 38.1191L25.8128 37.4017L26.8108 26.222L26.9144 25.0817Z" fill="white"/>
</svg>
