<svg width="49" height="48" viewBox="0 0 49 48" fill="none" xmlns="http://www.w3.org/2000/svg">
<mask id="mask0_7_364" style="mask-type:luminance" maskUnits="userSpaceOnUse" x="0" y="0" width="49" height="48">
<path d="M0.253174 0H48.2532V48H0.253174V0Z" fill="white"/>
</mask>
<g mask="url(#mask0_7_364)">
<path d="M37.0032 0H11.5032C5.28999 0 0.253174 5.03681 0.253174 11.25V36.75C0.253174 42.9632 5.28999 48 11.5032 48H37.0032C43.2164 48 48.2532 42.9632 48.2532 36.75V11.25C48.2532 5.03681 43.2164 0 37.0032 0Z" fill="#242938"/>
<path d="M19.4251 33.7724L26.0494 14.1749C26.0733 14.1044 26.1204 14.044 26.1831 14.0038C26.2458 13.9636 26.3203 13.9459 26.3944 13.9537L29.1413 14.2349C29.1903 14.2398 29.2375 14.2555 29.2795 14.2811C29.3215 14.3066 29.3573 14.3413 29.3841 14.3825C29.4109 14.4238 29.4282 14.4705 29.4345 14.5193C29.4408 14.568 29.4361 14.6176 29.4207 14.6643L22.9519 33.9918C22.9303 34.0573 22.8885 34.1142 22.8327 34.1546C22.7768 34.195 22.7096 34.2168 22.6407 34.2168L19.7344 34.2056C19.6825 34.2054 19.6313 34.1928 19.5852 34.1688C19.5155 34.1328 19.4611 34.073 19.4317 34.0003C19.4023 33.9276 19.4 33.8467 19.4251 33.7724Z" fill="#3D72D7"/>
<path d="M11.2669 24.6394C11.0469 24.7257 11.0482 24.8088 11.2707 24.8888C13.5419 25.7101 15.7319 26.4807 17.8407 27.2007C17.8895 27.2178 17.932 27.2494 17.9625 27.2913C17.993 27.3331 18.01 27.3833 18.0113 27.4351C18.0297 28.4307 18.0041 29.4267 17.9344 30.42C17.9273 30.5195 17.9059 30.6174 17.8707 30.7107C17.8257 30.8269 17.7457 30.8613 17.6307 30.8138L6.91129 26.3644C6.88737 26.3541 6.86718 26.3367 6.85344 26.3146C6.8397 26.2925 6.83306 26.2667 6.83442 26.2407L6.97317 23.3288C6.97485 23.2933 6.98647 23.2591 7.00669 23.2299C7.02691 23.2007 7.05493 23.1778 7.08754 23.1638L17.5688 18.6713C17.5951 18.6598 17.6235 18.6541 17.6522 18.6547C17.6809 18.6552 17.7091 18.662 17.7349 18.6745C17.7612 18.6869 17.7845 18.7048 17.8033 18.7268C17.8222 18.7489 17.8362 18.7747 17.8444 18.8025C17.9007 18.9938 17.9357 19.1813 17.9494 19.365C18.0182 20.3025 18.0369 21.2369 18.0057 22.1682C18.0045 22.1954 17.9953 22.2216 17.9793 22.2436C17.9633 22.2656 17.9411 22.2824 17.9157 22.2919C15.8113 23.069 13.7025 23.834 11.5894 24.5869C11.5357 24.6057 11.4813 24.6163 11.4263 24.6188C11.3463 24.6225 11.2932 24.6294 11.2669 24.6394ZM37.4607 24.6075L30.7688 22.2713C30.7558 22.267 30.7444 22.2587 30.7363 22.2476C30.7283 22.2365 30.7239 22.2231 30.7238 22.2094C30.705 21.2844 30.7088 20.3425 30.735 19.3838C30.7382 19.1838 30.7737 18.9856 30.84 18.7969C30.8638 18.7344 30.9075 18.7119 30.9713 18.7294C31.1838 18.7882 31.3825 18.8557 31.5675 18.9319C34.9638 20.3294 38.3569 21.7338 41.7469 23.145C41.8194 23.175 41.8557 23.2294 41.8557 23.3082L41.8613 26.2538C41.8612 26.2894 41.8507 26.3242 41.831 26.3538C41.8113 26.3835 41.7834 26.4067 41.7507 26.4207L31.08 30.8269C31.0377 30.8446 30.9906 30.8467 30.9468 30.8331C30.903 30.8194 30.8655 30.7907 30.8408 30.7521C30.8245 30.7267 30.8146 30.6977 30.8119 30.6675C30.7007 29.5488 30.6725 28.45 30.7275 27.3713C30.7295 27.3382 30.7412 27.3065 30.7612 27.2801C30.7813 27.2537 30.8087 27.2339 30.84 27.2232C33.1513 26.4444 35.3594 25.6519 37.4644 24.8457C37.6807 24.7632 37.6794 24.6838 37.4607 24.6075Z" fill="#F5F5F5"/>
</g>
</svg>
